<?xml version="1.0" encoding="iso-8859-1"?>
<!-- Generator: Adobe Illustrator 19.0.0, SVG Export Plug-In . SVG Version: 6.00 Build 0)  -->
<svg version="1.1" id="Capa_1" xmlns="http://www.w3.org/2000/svg" xmlns:xlink="http://www.w3.org/1999/xlink" x="0px" y="0px"
	 viewBox="0 0 512.002 512.002" style="enable-background:new 0 0 512.002 512.002;" xml:space="preserve">
<g>
	<g>
		<path d="M239.364,487.495l-4.886-41.185c-2.812-23.703-2.75-47.733,0.184-71.422l4.88-39.386c0.062-0.497,0.068-0.993,0.028-1.484
			c0.008-0.188,0.027-0.371,0.027-0.561c0-0.794-0.077-1.584-0.234-2.402l-4.885-41.181c-2.812-23.703-2.75-47.733,0.184-71.421
			l4.88-39.387c0.062-0.499,0.069-0.997,0.028-1.49c0.007-0.186,0.027-0.367,0.027-0.556c0-0.782-0.079-1.586-0.234-2.397
			l-4.886-41.185c-2.812-23.703-2.75-47.733,0.184-71.422l4.878-39.388c0.043-0.347,0.051-0.694,0.044-1.04
			c0.002-0.085,0.012-0.168,0.012-0.254C239.595,6.676,217.181,0,196.355,0c-20.826,0-43.24,6.676-43.24,21.334
			c0,0.076,0.01,0.148,0.011,0.224c-0.008,0.334-0.002,0.67,0.037,1.007l4.828,41.964c2.533,22.019,2.587,44.355,0.16,66.387
			l-3.597,32.651l-9.043-9.043c1.201-9.143-0.215-29.9-26.751-59.209C85.453,58.529,32.694,41.333,30.465,40.619
			c-2.596-0.832-5.437-0.143-7.364,1.784s-2.616,4.768-1.784,7.364c0.714,2.23,17.91,54.988,54.696,88.294
			c25.138,22.76,43.986,27.041,54.61,27.041c1.764,0,3.297-0.119,4.598-0.29l5.679,5.679l-13.331,3.649
			c-6.388-4.483-21.195-10.805-49.955-4.447c-37.351,8.256-68.965,36.976-70.293,38.194c-2.007,1.843-2.817,4.652-2.097,7.281
			c0.719,2.628,2.847,4.634,5.513,5.198c1.049,0.222,16.271,3.361,36.089,3.361c13.498,0,29.129-1.457,43.857-6.285
			c27.991-9.175,37.514-22.155,40.728-29.266l21.334-5.839l0.907,0.907l4.34,37.723c2.533,22.019,2.587,44.355,0.16,66.387
			l-4.839,43.926c-0.132,0.752-0.196,1.468-0.196,2.178c0,0.198,0.02,0.39,0.028,0.585c-0.036,0.462-0.034,0.929,0.02,1.397
			l4.828,41.964c0.748,6.507,1.287,13.121,1.601,19.659c0.192,4.013,3.578,7.112,7.616,6.918c4.013-0.193,7.111-3.603,6.918-7.616
			c-0.329-6.859-0.895-13.797-1.68-20.623l-2.887-25.096c-0.001,0-0.002-0.001-0.003-0.001c7.812,2.801,17.462,4.148,26.799,4.148
			c9.274,0,18.858-1.328,26.642-4.091c-0.001,0-0.002,0.001-0.003,0.001l-2.775,22.398c-3.078,24.85-3.143,50.059-0.193,74.925
			l4.922,41.488c0.005,0.04,0.01,0.081,0.016,0.121c-1.741,2.292-11.489,7.042-28.608,7.042c-17.144,0-26.896-4.764-28.616-7.052
			c0.002-0.016,0.004-0.032,0.006-0.048l4.869-44.193c0.104-0.946,0.204-1.893,0.299-2.84c0.404-3.998-2.51-7.566-6.508-7.969
			c-3.989-0.405-7.565,2.51-7.969,6.508c-0.091,0.902-0.187,1.805-0.286,2.707l-4.839,43.924c-0.132,0.752-0.196,1.468-0.196,2.179
			c0,14.658,22.414,21.334,43.24,21.334s43.24-6.676,43.24-21.334C239.598,489.111,239.519,488.307,239.364,487.495z
			 M85.778,127.274c-22.443-20.321-37.306-49.516-44.818-67.02c17.49,7.496,46.651,22.339,67.012,44.826
			c20.637,22.794,23.292,38.513,23.202,45.396C124.265,150.569,108.57,147.91,85.778,127.274z M86.149,203.613
			c-19.517,6.398-41.501,6.06-56.074,4.744c11.852-8.545,30.574-20.013,50.678-24.457c20.062-4.433,30.935-1.628,35.969,0.751
			C113.601,189.262,105.67,197.214,86.149,203.613z M196.355,14.551c16.48,0,26.127,4.402,28.378,6.775
			c-0.448,0.479-1.195,1.039-2.245,1.632c-0.035,0.019-0.074,0.039-0.109,0.059c-0.303,0.169-0.63,0.339-0.981,0.511
			c-0.078,0.038-0.163,0.077-0.244,0.115c-0.323,0.154-0.663,0.308-1.024,0.463c-0.12,0.052-0.248,0.103-0.372,0.154
			c-0.342,0.141-0.699,0.282-1.073,0.422c-0.161,0.06-0.328,0.12-0.495,0.179c-0.362,0.13-0.739,0.258-1.129,0.385
			c-0.2,0.065-0.404,0.129-0.61,0.193c-0.384,0.118-0.782,0.235-1.191,0.349c-0.237,0.066-0.476,0.132-0.722,0.197
			c-0.406,0.107-0.828,0.211-1.257,0.313c-0.273,0.065-0.546,0.13-0.828,0.192c-0.432,0.096-0.882,0.187-1.336,0.276
			c-0.303,0.06-0.604,0.121-0.917,0.177c-0.463,0.084-0.945,0.162-1.428,0.238c-0.332,0.053-0.66,0.108-1.002,0.157
			c-0.497,0.071-1.017,0.134-1.535,0.197c-0.353,0.043-0.699,0.089-1.062,0.128c-0.548,0.058-1.12,0.105-1.689,0.153
			c-0.361,0.03-0.712,0.066-1.082,0.092c-0.634,0.045-1.296,0.074-1.956,0.105c-0.33,0.015-0.647,0.038-0.984,0.05
			c-1.008,0.035-2.043,0.055-3.109,0.055c-1.066,0-2.1-0.02-3.109-0.055c-0.336-0.012-0.653-0.034-0.983-0.05
			c-0.66-0.031-1.322-0.061-1.957-0.105c-0.37-0.026-0.72-0.062-1.081-0.092c-0.57-0.048-1.142-0.095-1.69-0.153
			c-0.363-0.039-0.708-0.085-1.062-0.127c-0.518-0.063-1.038-0.126-1.536-0.197c-0.342-0.049-0.669-0.104-1.001-0.157
			c-0.483-0.077-0.966-0.154-1.428-0.238c-0.313-0.057-0.614-0.117-0.918-0.178c-0.454-0.09-0.904-0.18-1.336-0.276
			c-0.282-0.063-0.555-0.127-0.828-0.192c-0.428-0.102-0.85-0.205-1.256-0.312c-0.246-0.065-0.486-0.131-0.723-0.197
			c-0.408-0.114-0.806-0.23-1.189-0.349c-0.208-0.064-0.412-0.129-0.613-0.194c-0.389-0.126-0.764-0.254-1.126-0.383
			c-0.168-0.06-0.335-0.12-0.497-0.18c-0.373-0.139-0.729-0.28-1.07-0.421c-0.126-0.052-0.254-0.103-0.375-0.155
			c-0.359-0.154-0.697-0.307-1.018-0.461c-0.082-0.039-0.169-0.079-0.249-0.118c-0.348-0.171-0.671-0.34-0.972-0.507
			c-0.038-0.021-0.081-0.043-0.118-0.064c-1.048-0.592-1.795-1.153-2.242-1.631C170.227,18.953,179.875,14.551,196.355,14.551z
			 M196.355,340.238c-17.144,0-26.896-4.764-28.616-7.052c0.002-0.016,0.004-0.032,0.006-0.048l4.869-44.193
			c2.546-23.112,2.49-46.543-0.168-69.644l-2.887-25.095c-0.002-0.001-0.003-0.001-0.005-0.002
			c7.813,2.802,17.464,4.149,26.801,4.149c9.273,0,18.855-1.328,26.639-4.09l-2.775,22.398c-3.079,24.85-3.144,50.059-0.194,74.925
			l4.922,41.488c0.005,0.039,0.01,0.08,0.016,0.121C223.223,335.488,213.475,340.238,196.355,340.238z M196.355,183.803
			c-17.144,0-26.896-4.765-28.616-7.053c0.002-0.016,0.004-0.032,0.006-0.047l4.869-44.193c2.546-23.113,2.49-46.544-0.168-69.643
			l-2.796-24.311c6.806,2.426,14.993,3.75,23.151,4.047c0.081,0.003,0.162,0.005,0.243,0.007c1.106,0.037,2.211,0.06,3.312,0.06
			c1.089,0,2.182-0.022,3.276-0.059c0.088-0.003,0.175-0.005,0.262-0.008c8.098-0.293,16.226-1.597,23.003-3.987l-2.677,21.611
			c-3.079,24.85-3.144,50.059-0.194,74.925l4.922,41.487c0.005,0.04,0.01,0.081,0.016,0.121
			C223.224,179.051,213.476,183.803,196.355,183.803z"/>
	</g>
</g>
<g>
	<g>
		<path d="M504.679,365.396c-1.397-1.283-34.692-31.53-74.016-40.222c-30.494-6.741-46.009,0.054-52.578,4.738l-14.921-4.084
			l6.626-6.626c1.404,0.195,3.075,0.333,5.018,0.333c11.123,0,30.907-4.496,57.36-28.448c38.752-35.087,56.872-90.679,57.624-93.028
			c0.831-2.595,0.142-5.437-1.784-7.364c-1.927-1.927-4.769-2.615-7.364-1.784c-2.349,0.752-57.944,18.872-93.03,57.624
			c-28.133,31.072-29.424,52.937-28.115,62.379l-11.113,11.113l-3.486-29.381c-0.464-3.913-0.856-7.904-1.166-11.863
			c-0.314-4.006-3.808-6.997-7.821-6.686c-4.006,0.313-6.999,3.815-6.686,7.821c0.325,4.153,0.737,8.34,1.224,12.444l4.922,41.488
			c0.005,0.039,0.01,0.079,0.016,0.12c-1.738,2.292-11.487,7.043-28.608,7.043c-17.147,0-26.898-4.765-28.616-7.053
			c0.002-0.016,0.004-0.032,0.006-0.047l4.869-44.193c2.546-23.112,2.49-46.543-0.168-69.643l-2.797-24.31
			c6.811,2.428,15.005,3.752,23.17,4.047c0.061,0.002,0.122,0.003,0.183,0.005c1.119,0.038,2.238,0.062,3.352,0.062
			c1.102,0,2.208-0.023,3.316-0.06c0.068-0.002,0.136-0.004,0.204-0.006c8.104-0.292,16.24-1.596,23.023-3.988l-2.678,21.611
			c-0.656,5.302-1.183,10.692-1.565,16.022c-0.287,4.008,2.729,7.49,6.736,7.777c4.002,0.284,7.49-2.729,7.777-6.737
			c0.364-5.08,0.866-10.218,1.493-15.271l4.88-39.387c0.043-0.35,0.051-0.699,0.043-1.046c0.001-0.083,0.012-0.163,0.012-0.247
			c0-14.658-22.414-21.334-43.24-21.334s-43.24,6.676-43.24,21.334c0,0.075,0.009,0.146,0.011,0.22
			c-0.008,0.335-0.002,0.672,0.037,1.01l4.828,41.964c2.534,22.019,2.587,44.355,0.16,66.387l-4.84,43.925
			c-0.131,0.751-0.195,1.467-0.195,2.178c0,0.198,0.02,0.388,0.028,0.582c-0.036,0.463-0.035,0.931,0.019,1.399l4.828,41.964
			c2.534,22.019,2.587,44.355,0.16,66.387l-4.84,43.925c-0.131,0.751-0.195,1.467-0.195,2.178c0,14.658,22.414,21.334,43.24,21.334
			s43.24-6.676,43.24-21.334c0-0.793-0.077-1.582-0.234-2.399l-4.885-41.184c-0.001,0-0.001,0-0.001,0
			c-2.813-23.704-2.75-47.734,0.186-71.422l4.491-36.245l1.743-1.743l22.924,6.274c3.267,7.376,13.159,21.124,42.837,30.852
			c15.505,5.082,31.956,6.615,46.17,6.615c20.869,0,36.908-3.306,38.013-3.54c2.666-0.564,4.793-2.57,5.513-5.198
			C507.496,370.048,506.686,367.238,504.679,365.396z M398.402,256.302c21.856-24.139,53.403-39.985,71.801-47.8
			c-7.815,18.398-23.661,49.944-47.801,71.8c-24.597,22.271-41.487,24.792-48.609,24.588
			C373.611,297.826,376.129,280.901,398.402,256.302z M306.781,171.762c16.48,0,26.127,4.402,28.378,6.775
			c-0.448,0.479-1.196,1.041-2.247,1.634c-0.032,0.018-0.067,0.036-0.099,0.054c-0.306,0.171-0.637,0.343-0.993,0.518
			c-0.073,0.036-0.153,0.072-0.228,0.108c-0.328,0.157-0.674,0.314-1.041,0.471c-0.114,0.049-0.235,0.097-0.353,0.146
			c-0.349,0.144-0.713,0.288-1.095,0.43c-0.153,0.057-0.312,0.114-0.471,0.171c-0.37,0.133-0.755,0.264-1.154,0.393
			c-0.192,0.062-0.387,0.124-0.585,0.185c-0.394,0.121-0.802,0.241-1.222,0.358c-0.226,0.063-0.454,0.126-0.688,0.188
			c-0.418,0.11-0.853,0.217-1.295,0.322c-0.261,0.062-0.521,0.124-0.79,0.184c-0.446,0.099-0.91,0.193-1.379,0.285
			c-0.29,0.057-0.577,0.115-0.876,0.169c-0.479,0.087-0.977,0.167-1.478,0.246c-0.316,0.05-0.627,0.102-0.952,0.149
			c-0.518,0.074-1.059,0.14-1.6,0.205c-0.332,0.04-0.656,0.084-0.997,0.12c-0.58,0.062-1.184,0.112-1.788,0.162
			c-0.328,0.027-0.645,0.06-0.981,0.083c-0.688,0.049-1.404,0.082-2.122,0.114c-0.276,0.012-0.539,0.031-0.819,0.041
			c-1.013,0.035-2.053,0.055-3.123,0.055c-1.071,0-2.11-0.02-3.123-0.055c-0.281-0.01-0.546-0.029-0.823-0.042
			c-0.717-0.032-1.431-0.065-2.118-0.114c-0.336-0.024-0.654-0.056-0.983-0.083c-0.603-0.05-1.208-0.1-1.787-0.162
			c-0.34-0.036-0.663-0.08-0.994-0.12c-0.542-0.065-1.084-0.131-1.603-0.205c-0.324-0.046-0.634-0.098-0.949-0.148
			c-0.502-0.079-1.001-0.16-1.48-0.247c-0.299-0.054-0.586-0.112-0.876-0.169c-0.469-0.093-0.933-0.186-1.379-0.285
			c-0.269-0.06-0.529-0.122-0.79-0.183c-0.442-0.105-0.876-0.211-1.294-0.322c-0.235-0.062-0.464-0.125-0.692-0.189
			c-0.418-0.117-0.826-0.236-1.219-0.357c-0.199-0.062-0.395-0.123-0.587-0.186c-0.398-0.129-0.782-0.26-1.152-0.392
			c-0.16-0.057-0.319-0.114-0.473-0.172c-0.381-0.142-0.745-0.286-1.093-0.43c-0.119-0.049-0.24-0.098-0.355-0.147
			c-0.365-0.156-0.709-0.313-1.036-0.468c-0.078-0.037-0.16-0.074-0.235-0.111c-0.353-0.173-0.681-0.345-0.986-0.514
			c-0.034-0.019-0.072-0.038-0.105-0.057c-1.05-0.593-1.798-1.154-2.246-1.633C280.653,176.164,290.301,171.762,306.781,171.762z
			 M306.781,497.449c-17.146,0-26.898-4.765-28.616-7.053c0.002-0.016,0.004-0.031,0.006-0.047l4.869-44.193
			c2.546-23.112,2.49-46.543-0.168-69.644l-2.887-25.095c7.812,2.801,17.46,4.147,26.796,4.147c9.273,0,18.856-1.328,26.64-4.09
			l-2.775,22.398c-3.079,24.85-3.144,50.059-0.194,74.926l4.922,41.488c0.005,0.039,0.01,0.08,0.016,0.12
			C333.651,492.698,323.903,497.449,306.781,497.449z M421.613,360.971c-21.238-6.961-29.576-15.681-32.74-20.563
			c5.209-2.591,16.826-5.85,38.648-1.026c21.732,4.803,42.007,17.421,54.512,26.53C466.658,367.387,442.813,367.921,421.613,360.971
			z"/>
	</g>
</g>
<g>
</g>
<g>
</g>
<g>
</g>
<g>
</g>
<g>
</g>
<g>
</g>
<g>
</g>
<g>
</g>
<g>
</g>
<g>
</g>
<g>
</g>
<g>
</g>
<g>
</g>
<g>
</g>
<g>
</g>
</svg>
